<?xml version="1.0" encoding="utf-8"?>
<!-- Generator: Adobe Illustrator 22.1.0, SVG Export Plug-In . SVG Version: 6.00 Build 0)  -->
<svg version="1.1" id="svg1589" xmlns="http://www.w3.org/2000/svg" xmlns:xlink="http://www.w3.org/1999/xlink" x="0px" y="0px"
	 width="900px" height="600px" viewBox="0 0 900 600" style="enable-background:new 0 0 900 600;" xml:space="preserve">
<style type="text/css">
	.st0{fill:#FFFFFF;}
	.st1{fill:#006C35;}
</style>
<path id="path3342" class="st0" d="M900,600V0H0v600H900z"/>
<g>
	<path id="_x32_1461584" class="st1" d="M804,600V0H0v600H804z"/>
	<g id="g2857" transform="matrix(0.249501,0,0,0.249501,-1126.5442,107.6229)">
		<g id="g4297" transform="matrix(1.326429,0,0,1.5192893,165.77029,-461.23979)">
			<g id="g1890" transform="translate(-1.1934264e-5)">
				<path id="_x32_1461496" class="st0" d="M3655.1,356.3c12-33.6,13.2-63.6-1.2-52.8c-12,9.6-19.2,0-9.6-10.8
					c12-15.6,27.6-20.4,31.2,6C3676.6,319.1,3662.3,344.3,3655.1,356.3L3655.1,356.3z"/>
				<path id="_x32_1461408" class="st0" d="M3758.1,544.7c3.6,43.2,15.6,123.6,15.6,151.2c1.2,28.8,4.8,20.4,12,4.8
					c7.2-15.6,6-32.4,4.8-55.2c-2.4-24-3.6-63.6-8.4-117.6c9.6-7.2,18-19.2,21.6-26.4c9.6-18,12-16.8,15.6-2.4
					c7.2,28.8,36,48,74.3,20.4c36-25.2,20.4-78,4.8-135.6c13.2,2.4,18-8.4,9.6-22.8c-3.6-8.4-10.8-15.6-16.8-22.8
					c-6-7.2-12-13.2-18-6c-4.8,7.2-10.8,13.2-14.4,18c-3.6,4.8-3.6,9.6,1.2,21.6c14.4,33.6,24,69.6,26.4,90c3.6,19.2-3.6,24-16.8,24
					c-13.2,0-31.2-3.6-38.4-32.4c-7.2-28.8-10.8-42-9.6-61.2s3.6-32.4-9.6-51.6c-14.4-19.2-15.6-15.6-19.2-6
					c-2.4,10.8-7.2,26.4-2.4,44.4c6,26.4,9.6,49.2,13.2,64.8c2.4,10.8-8.4,33.6-24,45.6c-3.6-36-9.6-84-12-122.4
					c20.4-7.2,9.6-34.8-7.2-64.8c-12-22.8-16.8-13.2-25.2,1.2c-8.4,14.4-2.4,20.4,3.6,32.4c-4.8,9.6,3.6,24,7.2,50.4
					c1.2,16.8,4.8,64.8,8.4,106.8c-16.8,0-26.4-10.8-32.4-25.2c-13.2-30-9.6-57.6-3.6-75.6c6-18,12-45.6,1.2-52.8
					c-9.6-7.2-22.8,1.2-31.2,14.4c-14.4,21.6-27.6,52.8-28.8,85.2c-1.2,13.2-4.8,38.4-10.8,48c-4.8,9.6-13.2,10.8-21.6-3.6
					c-14.4-22.8-19.2-80.4-18-110.4c0-14.4-3.6-16.8-8.4,0c-15.6,57.6,2.4,120,15.6,146.4c13.2,26.4,30,20.4,42-1.2
					c18-32.4,10.8-61.2,27.6-109.2c9.6-30,13.2-7.2,9.6,10.8C3687.4,467.9,3689.8,545.9,3758.1,544.7L3758.1,544.7z"/>
				<path id="_x32_1461320" class="st0" d="M3809.7,292.7c-3.6,9.6-1.2,21.6,4.8,28.8c6,8.4,16.8,8.4,24,2.4c6-7.2,6-8.4,12,1.2
					c3.6,7.2,15.6,4.8,19.2-2.4c2.4-6,6-12,2.4-20.4s-3.6-6-6,3.6c-2.4,15.6-16.8,12-18-7.2c0-18-3.6-8.4-8.4,3.6
					c-8.4,18-20.4,14.4-20.4-1.2C3819.3,287.9,3815.7,277.1,3809.7,292.7z"/>
				<path id="_x32_1461232" class="st0" d="M3614.3,653.9c34.8-42,79.1-63.6,101.9-70.8c14.4-4.8,21.6-10.8,21.6,3.6
					c1.2,13.2,0,14.4-12,18c-27.6,7.2-85.1,36-104.3,50.4C3611.9,662.3,3599.9,670.7,3614.3,653.9z"/>
				<path id="_x32_1461144" class="st0" d="M3639.5,729.5c1.2,12,1.2,20.4,1.2,25.2c0,8.4-4.8,16.8-7.2,27.6
					c-14.4,51.6,7.2,76.8,19.2,57.6c10.8-19.2,16.8-16.8,15.6-1.2c-1.2,51.6-50.3,55.2-53.9,12c-6-68.4,9.6-79.2,14.4-102
					C3632.3,733.1,3637.1,721.1,3639.5,729.5L3639.5,729.5z"/>
				<path id="_x32_1461056" class="st0" d="M3892.4,626.3c-4.8,1.2-9.6,3.6-13.2,4.8c-21.6,6-25.2-2.4-24-15.6
					c1.2-13.2,2.4-16.8,16.8-10.8C3878,607.1,3885.2,615.5,3892.4,626.3l32.4-12c-6-13.2-14.4-24-27.6-37.2
					c-21.6-21.6-39.6-22.8-57.5,3.6c-16.8,25.2-15.6,31.2-14.4,54c1.2,22.8-3.6,31.2,14.4,37.2c16.8,6,24,3.6,34.8,0
					c8.4-2.4,20.4-6,32.4-10.8c2.4,12,1.2,25.2-6,34.8c-44.3,52.8-112.7,91.2-142.6,56.4c-16.8-19.2-24-49.2-19.2-85.2
					c4.8-30-4.8-16.8-8.4-6c-10.8,34.8-14.4,85.2,0,110.4c20.4,34.8,52.7,50.4,104.3,27.6c51.5-22.8,101.9-63.6,99.5-120
					c0-10.8-1.2-20.4-1.2-27.6c4.8-2.4,13.2-8.4,19.2-10.8c1.2,19.2-1.2,43.2,0,62.4c2.4,61.2-21.6,79.2-43.2,96
					c-30,24-70.7,39.6-105.5,45.6c-82.7,12-101.9-40.8-100.7-111.6c0-10.8,4.8-18,4.8-33.6c-1.2-30-4.8-25.2-14.4,4.8
					c-8.4,28.8-19.2,96,8.4,151.2c28.8,55.2,125.9,39.6,201.4,3.6c74.3-36,82.7-104.4,79.1-172.8c0-18-1.2-37.2-2.4-57.6
					c2.4-1.2,3.6-3.6,4.8-4.8c10.8,34.8,61.1,25.2,76.7,4.8c8.4-9.6,8.4-10.8,15.6,0c10.8,15.6,47.9,20.4,57.5-1.2
					c8.4-22.8,7.2-44.4,4.8-61.2s-6-15.6-16.8-7.2c-12,9.6-2.4,10.8-1.2,22.8c4.8,45.6-34.8,42-39.6-4.8c-2.4-28.8-7.2-18-10.8-4.8
					c-16.8,56.4-65.9,67.2-61.1,2.4c1.2-19.2-10.8-13.2-16.8-6c-6,4.8-10.8,10.8-16.8,14.4c-3.6-52.8-7.2-112.8-13.2-184.8
					c14.4,18,27.6-2.4,18-22.8c-7.2-15.6-18-50.4-25.2-69.6c-6-19.2-9.6-13.2-25.2,2.4c-14.4,16.8-12,20.4-4.8,37.2
					c-2.4,20.4,1.2,40.8,6,82.8c3.6,30,13.2,92.4,18,171.6c-7.2,3.6-18,10.8-25.2,14.4L3892.4,626.3z"/>
				<path id="_x32_1460968" class="st0" d="M4063.8,710.3c2.4,8.4,1.2,27.6-2.4,36c-4.8,10.8,0,15.6,7.2,2.4
					c7.2-14.4,12-31.2,8.4-48c-1.2-12-1.2-15.6-12-20.4c-12-4.8-15.6,2.4-19.2,12C4041,704.3,4047,717.5,4063.8,710.3z"/>
				<path id="_x32_1460880" class="st0" d="M4096.2,446.3c-14.4,18-25.2,44.4-4.8,60c10.8,9.6,33.6-1.2,42-19.2
					c8.4-19.2,4.8-21.6-9.6-6c-20.4,22.8-40.8,2.4-19.2-28.8C4118.9,430.7,4110.5,425.9,4096.2,446.3z"/>
				<path id="_x32_1460704" class="st0" d="M4127.3,339.5c2.4-4.8,4.8-10.8,6-15.6c2.4-7.2-3.6-14.4-8.4-3.6
					C4121.3,328.7,4120.1,334.7,4127.3,339.5l-13.2,22.8c-15.6-13.2-15.6-32.4-9.6-49.2c14.4-37.2,62.3-32.4,49.1,15.6
					c-1.2,7.2-4.8,16.8-9.6,26.4c7.2,9.6,3.6,21.6-10.8,19.2c-15.6,25.2-45.5,52.8-97.1,75.6c-24,10.8-27.6,2.4-9.6-8.4
					c34.8-22.8,67.1-50.4,87.5-79.2L4127.3,339.5z"/>
				<path id="_x32_1460792" class="st0" d="M4182.5,344.3c-19.2,54-18,105.6,21.6,150c22.8,25.2,39.6,13.2,49.1-14.4
					c10.8-26.4,18-52.8,25.2-70.8c7.2-18,13.2-14.4,12,2.4c-3.6,33.6-6,87.6,27.6,108c33.6,20.4,85.1-14.4,103.1-50.4
					c53.9,72,101.9,38.4,107.9-31.2c1.2-21.6-8.4-68.4-14.4-81.6c-6-14.4-2.4-14.4,6-7.2c8.4,8.4,22.8,13.2,15.6-10.8
					c-8.4-22.8-18-36-31.2-46.8c-12-10.8-14.4-4.8-19.2,3.6s-3.6,10.8-10.8,16.8c-7.2,7.2-6,10.8,0,24
					c20.4,52.8,39.6,129.6,7.2,136.8c-30,6-49.1-58.8-50.3-87.6c-1.2-38.4-6-70.8-13.2-91.2c-8.4-20.4-10.8-24-16.8-13.2
					c-4.8,8.4-6,14.4-10.8,22.8s0,10.8,3.6,27.6c18,84,15.6,122.4-22.8,144c-38.4,22.8-58.7,1.2-58.7-25.2
					c-1.2-26.4-1.2-58.8,2.4-82.8c2.4-24,8.4-27.6,0-39.6c-8.4-13.2-15.6-8.4-26.4,7.2c-24,33.6-47.9,90-56.3,116.4
					c-8.4,27.6-25.2,18-37.2-4.8c-13.2-27.6-12-76.8-7.2-96S4190.9,322.7,4182.5,344.3L4182.5,344.3z"/>
				<path id="_x32_1460616" class="st0" d="M4345.5,297.5c-8.4,8.4-8.4,9.6-1.2,20.4c7.2,8.4,18,34.8,14.4,62.4
					c-1.2,12,1.2,24,7.2,2.4c4.8-21.6,3.6-51.6-2.4-69.6S4350.3,290.3,4345.5,297.5L4345.5,297.5z"/>
				<path id="_x32_1460440" class="st0" d="M4519.3,608.3c8.4-2.4,16.8-3.6,26.4-6c25.2-6,10.8-8.4-6-19.2
					c-18-10.8-25.2-10.8-24,1.2C4516.9,591.5,4516.9,598.7,4519.3,608.3l-31.2,9.6c-20.4-30-7.2-51.6,8.4-74.4
					c19.2-27.6,50.3-19.2,86.3,6s21.6,64.8-13.2,85.2c-8.4,4.8-19.2,9.6-32.4,14.4c3.6,8.4-1.2,10.8-12,3.6
					c-31.2,10.8-71.9,26.4-100.7,42c34.8,2.4,178.6,0,207.4-3.6c28.8-2.4,24,2.4,15.6,27.6c-8.4,24-18,21.6-42,25.2
					c-38.4,7.2-94.7,24-135.4,40.8c-40.8,16.8-26.4,46.8,15.6,62.4c32.4,8.4,28.8,12,22.8,31.2c-4.8,18-4.8,22.8-44.3,16.8
					c-97.1-15.6-131.8-69.6-147.4-111.6c-59.9,85.2-118.7,132-173.8,117.6c-27.6-6-40.8-31.2-43.2-62.4
					c-38.4,18-82.7,33.6-140.2,50.4c-13.2,4.8-24-1.2-6-9.6c38.4-19.2,98.3-51.6,147.4-86.4c4.8-21.6,15.6-51.6,26.4-73.2
					c6-13.2,9.6-8.4,9.6,2.4c0,8.4-2.4,30-1.2,45.6c8.4-7.2,20.4-14.4,26.4-20.4c33.6-30,70.7-49.2,45.5-97.2
					c-10.8-21.6-19.2-37.2-22.8-46.8c-21.6-8.4-15.6-20.4-6-40.8c9.6-20.4,13.2-25.2,32.4-2.4c27.6,32.4,31.2,46.8,12,44.4
					c30,76.8,22.8,116.4-24,162c-21.6,22.8-44.3,40.8-70.7,55.2c-2.4,20.4,6,40.8,44.3,34.8c50.3-7.2,106.7-73.2,130.6-123.6
					c-10.8-42-34.8-117.6-49.1-156c-7.2-19.2,0-27.6,6-43.2c7.2-15.6,10.8-25.2,19.2-3.6c8.4,20.4,34.8,72,46.7,133.2
					c13.2,61.2,10.8,114,42,142.8c14.4,13.2,32.4,21.6,51.5,26.4c-14.4-40.8,15.6-72,55.1-86.4c-24-22.8-61.1-19.2-103.1-21.6
					c-31.2-1.2-27.6-4.8-19.2-32.4c8.4-27.6,18-31.2,40.8-40.8c31.2-12,62.3-24,94.7-33.6L4519.3,608.3z"/>
				<path id="_x32_1460528" class="st0" d="M4380.2,559.1c-2.4,16.8,1.2,27.6,7.2,36s18,7.2,21.6-2.4c3.6-10.8,6-12,13.2-3.6
					c8.4,8.4,36,1.2,22.8-40.8c-6-16.8-8.4-13.2-8.4,6c0,30-9.6,30-20.4,1.2c-3.6-10.8-8.4-10.8-9.6,3.6c0,27.6-12,31.2-19.2,3.6
					C4385,550.7,4382.6,541.1,4380.2,559.1z"/>
				<path id="_x32_1460352" class="st0" d="M4735,297.5c-4.8,9.6-8.4,16.8,1.2,24c9.6,7.2,24,26.4,18,48c-3.6,16.8,0,30,10.8,6
					c10.8-25.2,2.4-55.2-8.4-74.4C4747,284.3,4741,287.9,4735,297.5L4735,297.5z"/>
				<path id="_x32_1460264" class="st0" d="M4824.9,735.5c-10.8-54-59.9-140.4-133-253.2c-2.4-30-3.6-57.6-3.6-82.8
					c10.8,12,18,4.8,14.4-10.8c-7.2-27.6-18-50.4-31.2-81.6c-4.8-13.2-18-16.8-24,2.4c-8.4,22.8-9.6,27.6,1.2,43.2
					c-1.2,16.8,4.8,45.6,7.2,72c-13.2-19.2-30-43.2-43.1-63.6c20.4,8.4,32.4,2.4,14.4-16.8c-18-20.4-43.2-40.8-58.7-55.2
					s-22.8-4.8-20.4,8.4c1.2,13.2,2.4,22.8,1.2,33.6c-1.2,10.8,2.4,18,18,24c31.2,40.8,62.3,82.8,91.1,126
					c3.6,36,10.8,75.6,14.4,108c9.6,76.8,24,176.4,12,219.6c-9.6,32.4,0,46.8,15.6-2.4c14.4-49.2,13.2-96,3.6-169.2
					c-3.6-28.8-4.8-64.8-8.4-98.4c50.3,78,95.9,152.4,116.3,204C4822.5,770.3,4832.1,776.3,4824.9,735.5L4824.9,735.5z"/>
				<path id="_x32_1460176" class="st0" d="M4744.6,433.1c4.8,14.4,10.8,21.6,14.4,3.6c2.4-15.6,7.2-20.4,9.6-3.6
					c3.6,16.8,13.2,14.4,15.6-1.2c3.6-15.6,8.4-24,10.8-7.2c2.4,18,1.2,24-1.2,30c-1.2,4.8-10.8,10.8-18,3.6
					c-8.4-7.2-10.8-7.2-16.8-1.2c-13.2,12-18,3.6-20.4-13.2C4737.4,429.5,4742.2,423.5,4744.6,433.1L4744.6,433.1z"/>
				<path id="_x32_1460088" class="st0" d="M4551.6,841.1c12-7.2,18-13.2,27.6-16.8c9.6-4.8,16.8-3.6,9.6,16.8
					c-7.2,24-3.6,31.2,12,25.2c14.4-4.8,22.8-10.8,34.8-15.6c10.8-4.8,22.8-4.8,6,8.4c-13.2,10.8-32.4,25.2-43.2,27.6
					c-24,6-36-3.6-31.2-22.8c4.8-18,8.4-25.2-6-19.2C4544.4,851.9,4545.6,844.7,4551.6,841.1L4551.6,841.1z"/>
				<path id="_x32_1460000" class="st0" d="M4852.5,382.7c9.6,8.4,20.4,8.4,14.4-9.6s-10.8-39.6-16.8-60s-9.6-25.2-16.8-15.6
					c-8.4,10.8-14.4,14.4-20.4,21.6c-6,6-7.2,19.2,0,31.2c26.4,181.2,27.6,261.6,31.2,328.8c3.6,67.2,13.2,98.4-28.8,144
					c-45.5,49.2-73.1,61.2-93.5,66c-25.2,7.2-34.8,18,3.6,15.6c56.3-3.6,64.7-4.8,110.3-58.8c26.4-28.8,39.6-67.2,37.2-156
					C4870.5,533.9,4848.9,466.7,4852.5,382.7z"/>
				<path id="_x32_1459912" class="st0" d="M4935.2,388.7c16.8,8.4,34.8,13.2,21.6-7.2c-13.2-19.2-24-51.6-31.2-75.6
					c-8.4-24-10.8-22.8-24-2.4c-20.4,31.2-2.4,61.2,2.4,97.2c16.8,128.4,33.6,259.2,38.4,294c4.8,38.4,10.8,63.6,1.2,105.6
					c-3.6,13.2,1.2,16.8,9.6,1.2c33.6-63.6,10.8-118.8,7.2-154.8c-6-55.2-25.2-201.6-28.8-260.4"/>
				<path id="_x32_1459824" class="st0" d="M5017.9,485.9c-2.4,10.8-16.8,10.8-15.6-1.2c1.2-12,0-9.6,0-19.2
					c-1.2-9.6,10.8-15.6,16.8-7.2c7.2,8.4,19.2,34.8,22.8,44.4c4.8,9.6,7.2,7.2,7.2-6c-1.2-15.6-3.6-30-2.4-40.8
					c1.2-6,4.8-13.2,12-19.2c8.4-6,13.2-7.2,16.8,3.6c2.4,9.6,9.6,10.8,6,19.2c-4.8,12-15.6-12-22.8,4.8c-3.6,12,0,45.6-1.2,57.6
					c0,10.8-4.8,26.4-13.2,8.4C5038.3,518.3,5029.9,497.9,5017.9,485.9z"/>
				<path id="_x32_1459736" class="st0" d="M5014.3,633.5c0-8.4,3.6-10.8,18-22.8c12-9.6,45.5-33.6,56.3-44.4
					c10.8-10.8,19.2-20.4,21.6-7.2c1.2,13.2,3.6,18-9.6,25.2c-13.2,6-47.9,27.6-58.7,36C5029.9,629.9,5014.3,641.9,5014.3,633.5
					L5014.3,633.5z"/>
				<path id="_x32_1459648" class="st0" d="M5342.7,728.3c-2.4-16.8-7.2-33.6-28.8-66c-21.6-31.2-40.8-60-59.9-87.6
					c-6-72-14.4-148.8-14.4-189.6c9.6,9.6,16.8,0,12-15.6s-14.4-57.6-21.6-75.6c-6-16.8-13.2-13.2-22.8,2.4
					c-8.4,15.6-14.4,22.8-8.4,34.8c2.4,69.6,12,136.8,22.8,198c-19.2-26.4-37.2-51.6-53.9-74.4c-1.2-26.4-3.6-52.8-4.8-79.2
					c10.8,8.4,15.6,6,9.6-9.6c-4.8-16.8-18-51.6-24-67.2s-9.6-15.6-18-3.6c-13.2,20.4-16.8,34.8-6,54c1.2,16.8,3.6,34.8,4.8,50.4
					c-10.8-14.4-20.4-28.8-28.8-42c10.8,6,19.2-3.6,7.2-14.4c-10.8-10.8-33.6-28.8-43.2-42c-10.8-13.2-20.4-13.2-20.4-1.2
					s1.2,22.8,0,33.6c-2.4,9.6-2.4,19.2,12,36c27.6,33.6,53.9,68.4,79.1,100.8c9.6,120,15.6,196.8,13.2,244.8
					c-1.2,28.8-10.8,45.6-26.4,50.4c-15.6,6-31.2-4.8-45.5-26.4c-26.4-38.4-36-31.2-56.3,2.4c-19.2,31.2-32.4,57.6-43.2,80.4
					c-9.6,21.6-26.4,40.8-42,12c-14.4-28.8-16.8-61.2-15.6-84c0-22.8-3.6-40.8-12-4.8c-21.6,88.8-8.4,108,15.6,127.2
					c30,26.4,39.6,28.8,55.1,6c31.2-43.2,39.6-81.6,57.5-103.2c14.4-16.8,14.4-3.6,21.6,4.8c18,22.8,33.6,31.2,58.7,34.8
					c25.2,4.8,70.7-16.8,67.1-100.8c-2.4-50.4-6-118.8-10.8-192c24,33.6,45.5,63.6,62.3,87.6c8.4,48,13.2,91.2,10.8,126
					c-2.4,39.6,6,39.6,14.4-1.2c2.4-16.8,2.4-51.6-1.2-93.6c32.4,43.2,51.5,72,64.7,92.4C5337.9,758.3,5346.3,779.9,5342.7,728.3
					L5342.7,728.3z"/>
				<path id="_x32_1459560" class="st0" d="M5273.2,331.1c-7.2,12-6,14.4,2.4,27.6c8.4,14.4,15.6,40.8,15.6,61.2s7.2,18,10.8-1.2
					c3.6-18,2.4-54-8.4-79.2C5282.8,313.1,5279.2,322.7,5273.2,331.1L5273.2,331.1z"/>
				<path id="_x32_1459472" class="st0" d="M5370.3,369.5c13.2,12,20.4,8.4,12-12c-9.6-20.4-19.2-42-27.6-61.2
					c-9.6-20.4-12-15.6-22.8-1.2c-12,14.4-13.2,25.2-8.4,33.6c22.8,190.8,33.6,290.4,36,348c4.8,84-15.6,130.8-97.1,184.8
					c-26.4,18-56.3,38.4,7.2,22.8c62.3-15.6,129.5-57.6,122.3-231.6C5385.9,496.7,5365.5,428.3,5370.3,369.5L5370.3,369.5z"/>
				<path id="path2695" class="st0" d="M5078.3,624.1c-4.8,7.1-8.4,12.5,1.2,17.8c9.6,5.3,24,19.6,18,35.6
					c-3.6,12.5,0,22.3,10.8,4.5c10.8-18.7,2.4-41-8.4-55.2C5090.3,614.3,5084.3,616.9,5078.3,624.1z"/>
				<path id="path819" class="st0" d="M5144.2,849.5c3.4,4.4,5.7,8.4-0.3,15.6c-5.6,5.2-9.6,8-15.2,13.2c-2.7,4.5-4.4,11.4,3.8,13.6
					c15,4.2,43.4-14.6,43.4-15c5.6-4.2,3.8-12.2,3.3-12.2c-3.3-3.8-10.7-1.5-15.7-2.1c-2.4,0-3.8-4.9-0.1-11.8
					c3.1-4.3,4.2-6.9,6.3-12.2c2.3-5.2,0.3-8.6-8.1-11.4c-8.6-1.6-12-0.8-21.6,0c-5.2,1.1-6.9,3.4-7.9,9.7
					C5132.5,846.3,5138.2,845.7,5144.2,849.5L5144.2,849.5z"/>
			</g>
		</g>
		<g id="g2472" transform="matrix(-0.96,0,0,0.96,491.1573,-154.8938)">
			<path id="path2422" class="st0" d="M-6560.3,1793.4c6.2-13.6,21.5-29.2,34-34.7c12.5-5.5,24.4-21.5,26.4-35.5
				c3.1-22,1.4-23.7-12.6-12.1c-17.7,14.7-37.9,7.6-37.9-13.4c0-31.8,47.1-36.7,184-19c102.6,13.3,220.9,17.3,508.7,17.4
				c504.3,0.2,621.3-15,802.1-104.1c51.6-25.4,114.8-64.7,140.6-87.4l46.9-41.2l-66.3,26.4c-92.9,36.9-238.2,72.3-360.8,87.8
				c-132,16.7-683.9,17.1-854.2,0.7c-308.9-29.8-338.8-34.6-350.1-55.6c-15.4-28.8-6.6-45.9,13.3-25.9c9.1,9.1,19.4,13.6,23,10.1
				c12.7-12.7,6.1-43.7-12.2-57.1c-10.3-7.5-19.4-24.7-20.3-38.2c-0.9-13.5-4.1-27.1-7.1-30.1c-8.4-8.4-37.3,18.9-37.3,35.2
				c0,7.9-8.6,14.4-19.2,14.4s-24.3,11.3-30.6,25c-13.2,28.9-5.4,42.5,14.8,25.8c19.2-15.9,31.4,16.9,14,37.9
				c-16,19.3-35.3,19.3-88.4,0.2c-22.9-8.3-70.5-15.2-105.8-15.5c-59.1-0.4-66.3,2.1-91.1,31.6c-33.5,39.8-34.2,73-2.3,110.1
				c24.2,28.1,25.3,28.3,52.1,10.8c15.1-9.9,27.4-22.5,27.4-28.1c0-17.9,25.8-10.9,39.3,10.7c13.8,22.2,58.6,27.8,85.5,10.8
				c20-12.7,52.4,15.7,52,45.5c-0.3,20.3-1.3,20.5-14.1,3.8c-16.4-21.6-27.3-13.6-27.3,20.1c0,13.7,8.1,28,18.2,32.1
				c10.3,4.2,18.2,18.5,18.2,32.7C-6597.3,1818.3-6574.2,1823.9-6560.3,1793.4L-6560.3,1793.4z"/>
			<ellipse id="path2424" class="st1" cx="-6761.2" cy="1561.8" rx="18.7" ry="-18.7"/>
			<ellipse id="path2426" class="st1" cx="-6658.3" cy="1571.1" rx="18.7" ry="-18.7"/>
			<g id="g2463" transform="matrix(-0.08778042,-0.02269518,-0.02269518,0.08778042,-650.25752,1346.8522)">
				
					<ellipse id="path2428" transform="matrix(-0.9682 -0.2503 0.2503 -0.9682 117910.8672 51905.668)" class="st1" cx="62256.1" cy="18454.9" rx="133.7" ry="133.7"/>
				<g id="g2459" transform="translate(108.25674)">
					
						<ellipse id="path2432" transform="matrix(-0.9682 -0.2503 0.2503 -0.9682 117973.7656 53562.0781)" class="st1" cx="62392.9" cy="19279.1" rx="133.7" ry="133.7"/>
					
						<ellipse id="path2434" transform="matrix(-0.9682 -0.2503 0.2503 -0.9682 117009.2266 53439.4102)" class="st1" cx="61902.8" cy="19279.1" rx="133.7" ry="133.7"/>
				</g>
				<g id="g2451" transform="translate(0,98.89117)">
					
						<ellipse id="path2430" transform="matrix(-0.9682 -0.2503 0.2503 -0.9682 118669.3672 52548.3945)" class="st1" cx="62676.2" cy="18728" rx="133.7" ry="133.7"/>
					
						<ellipse id="path2436" transform="matrix(-0.9682 -0.2503 0.2503 -0.9682 117015.6328 52338.0781)" class="st1" cx="61836" cy="18728" rx="133.7" ry="133.7"/>
				</g>
			</g>
		</g>
	</g>
</g>
</svg>
